<svg id="Layer_1" data-name="Layer 1" xmlns="http://www.w3.org/2000/svg" viewBox="0 0 498.23 800.8"><defs><style>.cls-1{fill:#16123f;}</style></defs><path class="cls-1" d="M26.52,538.44,26.47,83.79,105,129.11,214.07,417.72a10.59,10.59,0,0,0,18.71,2.15L337.62,263.38l13.61,7.86a15.93,15.93,0,1,0,10.59-18.35l-22.19-12.81a10.6,10.6,0,0,0-14.1,3.28L226.62,391,123.47,118.08a10.62,10.62,0,0,0-4.61-5.43L81.32,91v-62l78.52,45.32,73.7,195a15.93,15.93,0,1,0,19.82-7.49l-75-198.55a10.62,10.62,0,0,0-4.61-5.43L76,1.42a10.6,10.6,0,0,0-15.89,9.17V78.75l-39-22.48A10.6,10.6,0,0,0,5.28,65.44l.06,473a15.93,15.93,0,1,0,21.18,0Z"/><path class="cls-1" d="M492.85,241.6,418.56,199A15.93,15.93,0,1,0,408,217.42l69,39.51L477,717l-34.38-19.85,0-363.71a15.94,15.94,0,1,0-21.19,0l.05,438.41-85.67-49.45,0-263a10.59,10.59,0,0,0-19.56-5.64L251.14,557.09l-49.55-28.6L132.71,338.91a10.59,10.59,0,0,0-20.54,3.62l0,250.81L94.26,583a15.92,15.92,0,1,0-10.59,18.35l33.82,19.52a10.59,10.59,0,0,0,15.89-9.18l0-209L183,539.35a10.61,10.61,0,0,0,4.66,5.56l61.72,35.62A10.59,10.59,0,0,0,263.64,577l51-80.93,0,232.46a10.58,10.58,0,0,0,5.29,9.17l106.86,61.68a10.6,10.6,0,0,0,15.89-9.18V721.63l39.68,22.9a10.6,10.6,0,0,0,15.89-9.18l-.06-484.56A10.59,10.59,0,0,0,492.85,241.6Z"/></svg>